<?xml version="1.0" encoding="UTF-8"?>
<svg width="15px" height="12px" viewBox="0 0 15 12" version="1.1" xmlns="http://www.w3.org/2000/svg" xmlns:xlink="http://www.w3.org/1999/xlink">
    <!-- Generator: sketchtool 53.2 (72643) - https://sketchapp.com -->
    <title>EDE65E4A-35BE-45A6-BF2B-481F4E68724E</title>
    <desc>Created with sketchtool.</desc>
    <g id="Surveybot---Third-Iteration" stroke="none" stroke-width="1" fill="none" fill-rule="evenodd">
        <g id="Option-C---Question-1" transform="translate(-82.000000, -674.000000)" fill="#FFFFFF" fill-rule="nonzero">
            <g id="sidebar-left-copy-2" transform="translate(65.000000, 0.000000)">
                <g id="nav-pills__container" transform="translate(0.000000, 63.000000)">
                    <g id="nav-pills" transform="translate(0.000000, 557.000000)">
                        <g id="sidebar-item/unread" transform="translate(0.000000, 45.000000)">
                            <g id="icon-happy-bot-LHS" transform="translate(17.000000, 7.000000)">
                                <path d="M6.5,4 L6.5,3 C6.5,2.44771525 6.94771525,2 7.5,2 C8.05228475,2 8.5,2.44771525 8.5,3 L8.5,4 L10.5,4 C11.6045695,4 12.5,4.8954305 12.5,6 L12.5,12 C12.5,13.1045695 11.6045695,14 10.5,14 L4.5,14 C3.3954305,14 2.5,13.1045695 2.5,12 L2.5,6 C2.5,4.8954305 3.3954305,4 4.5,4 L6.5,4 Z M4.51081032,10.3290113 C4.50365209,10.385374 4.5,10.4424027 4.5,10.5 C4.5,11.6045695 5.84314575,12.5 7.5,12.5 C9.15685425,12.5 10.5,11.6045695 10.5,10.5 C10.5,10.4424027 10.4963479,10.385374 10.4891897,10.3290113 C9.75653216,10.7406854 8.68883225,11 7.5,11 C6.31116775,11 5.24346784,10.7406854 4.51081032,10.3290113 Z M5.5,9 C6.05228475,9 6.5,8.55228475 6.5,8 C6.5,7.44771525 6.05228475,7 5.5,7 C4.94771525,7 4.5,7.44771525 4.5,8 C4.5,8.55228475 4.94771525,9 5.5,9 Z M9.5,9 C10.0522847,9 10.5,8.55228475 10.5,8 C10.5,7.44771525 10.0522847,7 9.5,7 C8.94771525,7 8.5,7.44771525 8.5,8 C8.5,8.55228475 8.94771525,9 9.5,9 Z M1,7 L1.5,7 L1.5,11 L1,11 C0.44771525,11 6.76353751e-17,10.5522848 0,10 L0,8 C-6.76353751e-17,7.44771525 0.44771525,7 1,7 Z M13.5,7 L14,7 C14.5522847,7 15,7.44771525 15,8 L15,10 C15,10.5522848 14.5522847,11 14,11 L13.5,11 L13.5,7 Z" id="icon-happy-bot-copy"></path>
                            </g>
                        </g>
                    </g>
                </g>
            </g>
        </g>
    </g>
</svg>