<svg width="500" height="500" viewBox="0 0 500 500" fill="none" xmlns="http://www.w3.org/2000/svg">
<path fill-rule="evenodd" clip-rule="evenodd" d="M396.9 47.7001L399.5 100.8C442.5 148.3 459.5 215.6 438.1 278.9C406.1 373.3 300.7 423 202.7 389.8C104.7 356.6 51.1002 253.1 83.0002 158.7C104.5 95.2001 159.2 52.0001 222.5 40.5001L256.7 0.100094C150 -2.79991 49.3002 63.4001 13.3002 169.9C-30.9998 300.6 39.1002 442.5 169.9 486.7C300.7 530.9 442.5 460.9 486.8 330.1C522.7 223.9 483.1 110.3 396.9 47.7001Z" fill="#0058CC"/>
<path fill-rule="evenodd" clip-rule="evenodd" d="M335.6 204.3L333.8 130.1L332.3 87.4002L331.3 50.4002C331.3 50.4002 331.5 32.6002 330.9 28.4002C330.8 27.5002 330.5 26.8002 330.2 26.2002C330.2 26.1002 330.1 26.0002 330.1 25.9002C330.1 25.8002 330 25.7002 330 25.7002C329.3 24.5002 328.2 23.6002 326.9 23.1002C325.5 22.6002 324 22.7002 322.7 23.3002H322.6C322.4 23.4002 322.3 23.4002 322.2 23.5002C321.6 23.8002 321 24.2002 320.4 24.8002C317.4 27.8002 306.7 42.0002 306.7 42.0002L283.5 70.8002L256.4 103.8L209.9 161.6C209.9 161.6 188.6 188.2 193.3 221C198 253.8 222.4 269.7 241.3 276.1C260.2 282.5 289.3 284.6 312.9 261.4C336.4 238.4 335.6 204.3 335.6 204.3Z" fill="#0058CC"/>
</svg>
